# xmcd
#
# Track frame offsets:
#   150
#   13552
#   27382
#   39822
#   52600
#   64838
#   77313
#   93359
#   107626
#   121320
#   132691
#   148737
#
# Disc length: 2180 seconds
#
# Revision: 0
# Processed by: cddbd v1.5.2PL0 Copyright (c) Steve Scherf et al.
# Submitted via: uFREEDB ActiveX Control 1.5
#
DISCID=9208820c
DTITLE=Teodorinho e Sampainho - Teodoro e Sampaio
DYEAR=2012
DGENRE=Blues
TTITLE0=Mulher Chorona
TTITLE1=A Gostosona
TTITLE2=Se a Casa Cair
TTITLE3=Mentira Dela
TTITLE4=Cantaram Minha Vizinha
TTITLE5=Aqui Pra Ela
TTITLE6=Quem vai Mandar no Mundo e a Mulher
TTITLE7=Roela do Eno
TTITLE8=Fogo no Facho
TTITLE9=Vestido de Seda
TTITLE10=Paixao Proibida
TTITLE11=Agua no Leite
EXTD=
EXTT0=
EXTT1=
EXTT2=
EXTT3=
EXTT4=
EXTT5=
EXTT6=
EXTT7=
EXTT8=
EXTT9=
EXTT10=
EXTT11=
PLAYORDER=
